<svg width="32" height="48" viewBox="0 0 32 48" fill="none" xmlns="http://www.w3.org/2000/svg">
<path d="M0 5.33333C0 3.91885 0.561903 2.56229 1.5621 1.5621C2.56229 0.561903 3.91885 0 5.33333 0H26.6667C28.0812 0 29.4377 0.561903 30.4379 1.5621C31.4381 2.56229 32 3.91885 32 5.33333V42.6667C32 44.0812 31.4381 45.4377 30.4379 46.4379C29.4377 47.4381 28.0812 48 26.6667 48H5.33333C3.91885 48 2.56229 47.4381 1.5621 46.4379C0.561903 45.4377 0 44.0812 0 42.6667V5.33333ZM26.6667 5.33333H5.33333V42.6667H26.6667V5.33333Z" fill="#EBF5FF"/>
<path d="M18.6665 37.3273C18.6665 38.0346 18.3855 38.7128 17.8854 39.2129C17.3853 39.713 16.7071 39.994 15.9998 39.994C15.2926 39.994 14.6143 39.713 14.1142 39.2129C13.6141 38.7128 13.3331 38.0346 13.3331 37.3273C13.3331 36.6201 13.6141 35.9418 14.1142 35.4417C14.6143 34.9416 15.2926 34.6606 15.9998 34.6606C16.7071 34.6606 17.3853 34.9416 17.8854 35.4417C18.3855 35.9418 18.6665 36.6201 18.6665 37.3273Z" fill="#EBF5FF"/>
</svg>
