<svg width="42" height="34" viewBox="0 0 42 34" fill="none" xmlns="http://www.w3.org/2000/svg">
<path d="M0 4.2C0 3.08609 0.442499 2.0178 1.23015 1.23015C2.0178 0.442499 3.08609 0 4.2 0H37.8C38.9139 0 39.9822 0.442499 40.7698 1.23015C41.5575 2.0178 42 3.08609 42 4.2V29.4C42 30.5139 41.5575 31.5822 40.7698 32.3699C39.9822 33.1575 38.9139 33.6 37.8 33.6H4.2C3.08609 33.6 2.0178 33.1575 1.23015 32.3699C0.442499 31.5822 0 30.5139 0 29.4V4.2ZM7.3899 4.2L21 16.1091L34.6101 4.2H7.3899ZM37.8 6.9909L22.3839 20.4813C22.001 20.8168 21.5091 21.0018 21 21.0018C20.4909 21.0018 19.999 20.8168 19.6161 20.4813L4.2 6.9909V29.4H37.8V6.9909Z" fill="#EBF5FF"/>
</svg>
