<svg width="42" height="42" viewBox="0 0 42 42" fill="none" xmlns="http://www.w3.org/2000/svg">
<g clip-path="url(#clip0_85_76)">
<path d="M30.9824 21.6146L31.0145 21.4617V21.3056C31.0145 20.8921 30.9157 20.393 30.6194 19.9485C30.2935 19.4596 29.7146 19.0419 28.9418 19.0419H25.4782V15.9328H29.1327C29.5549 15.9328 30.147 15.8263 30.6229 15.3503C31.0989 14.8743 31.2055 14.2822 31.2055 13.8601V9.27829C31.2055 8.85617 31.0989 8.26407 30.6229 7.78809C30.147 7.31211 29.5549 7.20557 29.1327 7.20557H23.9782C19.9043 7.20557 16.7509 10.359 16.7509 14.4328V19.2328H15.0055C14.5833 19.2328 13.9912 19.3394 13.5153 19.8154C13.0393 20.2913 12.9327 20.8834 12.9327 21.3056V24.9328C12.9327 25.355 13.0393 25.9471 13.5153 26.423C13.9912 26.899 14.5833 27.0056 15.0055 27.0056H16.7509V39.251V40.751H18.2509H23.9782H25.4782V39.251V26.8146H28.1782C28.6425 26.8146 29.0557 26.6329 29.3079 26.4816C29.4554 26.393 29.648 26.2559 29.8218 26.0554C29.9588 25.8973 30.1736 25.5944 30.2344 25.1676L30.9824 21.6146Z" stroke="#EBF5FF" stroke-width="3" stroke-miterlimit="10" stroke-linecap="round"/>
<path d="M26.7273 40.091H15.2727C5.72727 40.091 1.90909 36.2728 1.90909 26.7274V15.2728C1.90909 5.72736 5.72727 1.90918 15.2727 1.90918H26.7273C36.2727 1.90918 40.0909 5.72736 40.0909 15.2728V26.7274C40.0909 36.2728 36.2727 40.091 26.7273 40.091Z" stroke="#EBF5FF" stroke-width="4" stroke-linecap="round" stroke-linejoin="round"/>
</g>
<defs>
<clipPath id="clip0_85_76">
<rect width="42" height="42" fill="white"/>
</clipPath>
</defs>
</svg>
