<svg width="41" height="41" viewBox="0 0 41 41" fill="none" xmlns="http://www.w3.org/2000/svg">
<g clip-path="url(#clip0_85_72)">
<path d="M40.8768 12.048C40.777 9.86588 40.4304 8.37567 39.9236 7.0719C39.4091 5.704 38.602 4.46498 37.5591 3.44086C36.5353 2.39797 35.296 1.59061 33.9281 1.07574C32.624 0.569306 31.1341 0.22303 28.952 0.123871C26.7658 0.0237732 26.0673 0 20.5 0C14.9327 0 14.2342 0.0237732 12.048 0.123245C9.86588 0.22303 8.37598 0.569618 7.0719 1.07636C5.704 1.59093 4.46498 2.39797 3.44086 3.44086C2.39796 4.46467 1.59061 5.70369 1.07574 7.07159C0.569305 8.37567 0.22303 9.86588 0.123871 12.0477C0.0237732 14.2342 0 14.9324 0 20.4997C0 26.0673 0.0237732 26.7658 0.123871 28.952C0.223343 31.1338 0.569931 32.624 1.07668 33.9281C1.59124 35.2957 2.39828 36.535 3.44117 37.5588C4.46498 38.6017 5.70432 39.4088 7.07221 39.9233C8.37598 40.4304 9.86619 40.7767 12.0483 40.8765C14.2348 40.9762 14.933 40.9997 20.5003 40.9997C26.0676 40.9997 26.7661 40.9762 28.9523 40.8765C31.1344 40.7767 32.6243 40.4304 33.9284 39.9233C36.682 38.8586 38.8588 36.6817 39.9236 33.9281C40.4307 32.624 40.777 31.1338 40.8768 28.952C40.9762 26.7655 41 26.0673 41 20.5C41 14.9324 40.9762 14.2342 40.8768 12.048V12.048ZM37.1866 28.784C37.0956 30.7829 36.7615 31.8683 36.4809 32.5906C35.7912 34.3786 34.3782 35.7915 32.5902 36.4812C31.868 36.7618 30.7825 37.0959 28.7837 37.1869C26.6225 37.2858 25.9741 37.3064 20.5 37.3064C15.0256 37.3064 14.3775 37.2858 12.216 37.1869C10.2175 37.0959 9.13203 36.7618 8.40945 36.4812C7.51921 36.1525 6.71374 35.6285 6.05247 34.9475C5.37149 34.2863 4.84754 33.4811 4.51878 32.5906C4.2382 31.8683 3.90412 30.7829 3.8131 28.784C3.71456 26.6225 3.6936 25.9741 3.6936 20.5003C3.6936 15.0262 3.71456 14.3781 3.8131 12.2163C3.90443 10.2175 4.2382 9.13204 4.51878 8.40977C4.84754 7.51921 5.3718 6.71374 6.05247 6.05247C6.71374 5.37149 7.51921 4.84754 8.40977 4.5191C9.13203 4.2382 10.2175 3.90444 12.2163 3.8131C14.3778 3.71456 15.0262 3.6936 20.5 3.6936H20.4997C25.9735 3.6936 26.6219 3.71456 28.7837 3.81341C30.7825 3.90444 31.8677 4.23851 32.5902 4.5191C33.4805 4.84786 34.2859 5.37181 34.9472 6.05247C35.6282 6.71374 36.1521 7.51921 36.4806 8.40977C36.7615 9.13204 37.0956 10.2175 37.1866 12.2163C37.2851 14.3778 37.3061 15.0262 37.3061 20.5C37.3061 25.9741 37.2854 26.6222 37.1866 28.784Z" fill="#EBF5FF"/>
<path d="M20.4997 9.97266C14.6859 9.97266 9.97285 14.686 9.97285 20.4998C9.97285 26.3136 14.6859 31.0266 20.4997 31.0266C26.3138 31.0266 31.0268 26.3136 31.0268 20.4998C31.0268 14.686 26.3138 9.97266 20.4997 9.97266V9.97266ZM20.4997 27.333C16.726 27.3327 13.6665 24.2735 13.6668 20.4995C13.6668 16.7258 16.726 13.6663 20.5 13.6663C24.274 13.6666 27.3332 16.7258 27.3332 20.4995C27.3332 24.2735 24.2737 27.333 20.4997 27.333V27.333Z" fill="#EBF5FF"/>
<path d="M33.9028 9.55689C33.9028 10.9154 32.8014 12.0168 31.4429 12.0168C30.084 12.0168 28.9826 10.9154 28.9826 9.55689C28.9826 8.19807 30.084 7.09668 31.4429 7.09668C32.8014 7.09668 33.9028 8.19807 33.9028 9.55689V9.55689Z" fill="#EBF5FF"/>
</g>
<defs>
<clipPath id="clip0_85_72">
<rect width="41" height="41" fill="white"/>
</clipPath>
</defs>
</svg>
