<svg width="40" height="30" viewBox="0 0 40 30" fill="none" xmlns="http://www.w3.org/2000/svg">
<path d="M0 2.5C0 1.83696 0.263393 1.20107 0.732234 0.732234C1.20107 0.263393 1.83696 0 2.5 0H37.5C38.163 0 38.7989 0.263393 39.2678 0.732234C39.7366 1.20107 40 1.83696 40 2.5C40 3.16304 39.7366 3.79893 39.2678 4.26777C38.7989 4.73661 38.163 5 37.5 5H2.5C1.83696 5 1.20107 4.73661 0.732234 4.26777C0.263393 3.79893 0 3.16304 0 2.5ZM0 15C0 14.337 0.263393 13.7011 0.732234 13.2322C1.20107 12.7634 1.83696 12.5 2.5 12.5H37.5C38.163 12.5 38.7989 12.7634 39.2678 13.2322C39.7366 13.7011 40 14.337 40 15C40 15.663 39.7366 16.2989 39.2678 16.7678C38.7989 17.2366 38.163 17.5 37.5 17.5H2.5C1.83696 17.5 1.20107 17.2366 0.732234 16.7678C0.263393 16.2989 0 15.663 0 15ZM0 27.5C0 26.837 0.263393 26.2011 0.732234 25.7322C1.20107 25.2634 1.83696 25 2.5 25H37.5C38.163 25 38.7989 25.2634 39.2678 25.7322C39.7366 26.2011 40 26.837 40 27.5C40 28.163 39.7366 28.7989 39.2678 29.2678C38.7989 29.7366 38.163 30 37.5 30H2.5C1.83696 30 1.20107 29.7366 0.732234 29.2678C0.263393 28.7989 0 28.163 0 27.5Z" fill="#024F9D" fill-opacity="0.71"/>
</svg>
