<svg width="28" height="35" viewBox="0 0 28 35" fill="none" xmlns="http://www.w3.org/2000/svg">
<path d="M13.6 0.5C6.12 0.5 0 6.62 0 14.1C0 23.28 11.9 33.65 12.41 34.16C12.75 34.33 13.26 34.5 13.6 34.5C13.94 34.5 14.45 34.33 14.79 34.16C15.3 33.65 27.2 23.28 27.2 14.1C27.2 6.62 21.08 0.5 13.6 0.5ZM13.6 30.59C10.03 27.19 3.4 19.88 3.4 14.1C3.4 8.49 7.99 3.9 13.6 3.9C19.21 3.9 23.8 8.49 23.8 14.1C23.8 19.71 17.17 27.19 13.6 30.59ZM13.6 7.3C9.86 7.3 6.8 10.36 6.8 14.1C6.8 17.84 9.86 20.9 13.6 20.9C17.34 20.9 20.4 17.84 20.4 14.1C20.4 10.36 17.34 7.3 13.6 7.3ZM13.6 17.5C11.73 17.5 10.2 15.97 10.2 14.1C10.2 12.23 11.73 10.7 13.6 10.7C15.47 10.7 17 12.23 17 14.1C17 15.97 15.47 17.5 13.6 17.5Z" fill="#EBF5FF"/>
</svg>
