<svg width="42" height="42" viewBox="0 0 42 42" fill="none" xmlns="http://www.w3.org/2000/svg">
<g clip-path="url(#clip0_85_63)">
<path d="M0.975754 42C0.739915 42 0.510484 41.9068 0.340334 41.7347C0.11603 41.5078 0.0295125 41.1784 0.113787 40.8705L2.84421 30.8998C1.1443 27.8259 0.248049 24.3485 0.24933 20.8186C0.254137 9.33907 9.59607 0 21.0747 0C26.6422 0.00224305 31.8736 2.17094 35.8057 6.10588C39.7371 10.0411 41.9013 15.2722 41.8997 20.8353C41.8945 32.3152 32.5526 41.6549 21.0747 41.6549C21.0747 41.6549 21.066 41.6549 21.0657 41.6549C17.713 41.6536 14.3891 40.8365 11.4296 39.2888L1.2023 41.9708C1.12732 41.9904 1.05106 42 0.975754 42V42Z" fill="#E5E5E5"/>
<path d="M0.975708 41.1061L3.80323 30.7807C2.0591 27.7587 1.14169 24.3307 1.14298 20.8188C1.14746 9.83206 10.0882 0.893555 21.0747 0.893555C26.4061 0.895798 31.4103 2.97093 35.1735 6.73731C38.9364 10.5037 41.008 15.5101 41.0061 20.8348C41.0013 31.8212 32.0592 40.761 21.0747 40.761C21.074 40.761 21.075 40.761 21.0747 40.761H21.066C17.7303 40.7597 14.4529 39.923 11.5417 38.3353L0.975708 41.1061ZM12.031 34.7282L12.6363 35.0867C15.1793 36.596 18.095 37.3942 21.0683 37.3958H21.0747C30.2052 37.3958 37.6367 29.9656 37.6405 20.8335C37.6421 16.408 35.9208 12.2465 32.793 9.11621C29.6649 5.98589 25.506 4.26099 21.0808 4.25907C11.9429 4.25907 4.51171 11.6883 4.50818 20.8201C4.5069 23.9494 5.38233 26.9967 7.0409 29.6339L7.43504 30.2607L5.76109 36.372L12.031 34.7282Z" fill="white"/>
<path d="M1.66882 40.4105L4.3986 30.4421C2.7144 27.5249 1.82904 24.2151 1.83 20.8252C1.83417 10.2188 10.4657 1.58984 21.0711 1.58984C26.2186 1.59209 31.0498 3.59544 34.6819 7.23141C38.315 10.8674 40.3145 15.7005 40.3125 20.8403C40.3081 31.447 31.6762 40.0769 21.0721 40.0769C21.0711 40.0769 21.0724 40.0769 21.0721 40.0769H21.0634C17.8434 40.0756 14.6791 39.2675 11.8689 37.7358L1.66882 40.4105Z" fill="#64B161"/>
<path d="M0.975708 41.1061L3.80323 30.7807C2.0591 27.7587 1.14169 24.3307 1.14298 20.8188C1.14746 9.83206 10.0882 0.893555 21.0747 0.893555C26.4061 0.895798 31.4103 2.97093 35.1735 6.73731C38.9364 10.5037 41.008 15.5101 41.0061 20.8348C41.0013 31.8212 32.0592 40.761 21.0747 40.761C21.074 40.761 21.075 40.761 21.0747 40.761H21.066C17.7303 40.7597 14.4529 39.923 11.5417 38.3353L0.975708 41.1061ZM12.031 34.7282L12.6363 35.0867C15.1793 36.596 18.095 37.3942 21.0683 37.3958H21.0747C30.2052 37.3958 37.6367 29.9656 37.6405 20.8335C37.6421 16.408 35.9208 12.2465 32.793 9.11621C29.6649 5.98589 25.506 4.26099 21.0808 4.25907C11.9429 4.25907 4.51171 11.6883 4.50818 20.8201C4.5069 23.9494 5.38233 26.9967 7.0409 29.6339L7.43504 30.2607L5.76109 36.372L12.031 34.7282Z" fill="white"/>
<path fill-rule="evenodd" clip-rule="evenodd" d="M16.0932 12.4889C15.7202 11.6596 15.3273 11.643 14.9723 11.6286C14.682 11.6161 14.3497 11.6167 14.018 11.6167C13.6861 11.6167 13.1464 11.7417 12.6902 12.24C12.2335 12.7382 10.9467 13.9431 10.9467 16.3934C10.9467 18.8441 12.7315 21.2118 12.9805 21.5445C13.2294 21.8768 16.4258 27.0659 21.4877 29.0622C25.6946 30.7214 26.5505 30.3914 27.4638 30.3084C28.377 30.2254 30.4101 29.1036 30.8251 27.9407C31.2404 26.7778 31.2404 25.7813 31.1157 25.5727C30.9911 25.3653 30.6591 25.2407 30.1612 24.9917C29.6632 24.7427 27.2148 23.5376 26.7582 23.3716C26.3015 23.2053 25.9696 23.1226 25.6376 23.6212C25.3053 24.1192 24.3517 25.2407 24.0611 25.5727C23.7704 25.9056 23.4798 25.9473 22.9818 25.698C22.4839 25.4483 20.8798 24.9228 18.9771 23.2261C17.4967 21.9062 16.4969 20.2759 16.2063 19.7773C15.916 19.2793 16.2015 19.0332 16.4251 18.7612C16.8279 18.2712 17.5037 17.3903 17.6697 17.0584C17.8357 16.7257 17.7527 16.4351 17.6284 16.1858C17.5037 15.9368 16.5357 13.474 16.0932 12.4889V12.4889Z" fill="white"/>
</g>
<defs>
<clipPath id="clip0_85_63">
<rect width="42" height="42" fill="white"/>
</clipPath>
</defs>
</svg>
