<svg width="45" height="45" viewBox="0 0 45 45" fill="none" xmlns="http://www.w3.org/2000/svg">
<g clip-path="url(#clip0_85_79)">
<path d="M1.0454 44.0424L4.07489 32.9795C2.20618 29.7416 1.22324 26.0688 1.22462 22.306C1.22942 10.5345 10.8088 0.95752 22.58 0.95752C28.2922 0.959923 33.6539 3.18328 37.6859 7.21868C41.7175 11.2541 43.9371 16.6182 43.9351 22.3231C43.9299 34.0943 34.3491 43.6726 22.58 43.6726C22.5793 43.6726 22.5804 43.6726 22.58 43.6726H22.5707C18.9967 43.6712 15.4852 42.7748 12.3661 41.0737L1.0454 44.0424ZM12.8904 37.2089L13.5389 37.5931C16.2636 39.2101 19.3874 40.0653 22.5731 40.067H22.58C32.3627 40.067 40.325 32.1061 40.3291 22.3218C40.3309 17.5801 38.4865 13.1214 35.1353 9.7675C31.7838 6.41359 27.3278 4.56549 22.5865 4.56343C12.796 4.56343 4.83397 12.5233 4.8302 22.3073C4.82883 25.6602 5.76678 28.9252 7.54383 31.7508L7.96611 32.4223L6.17259 38.9701L12.8904 37.2089Z" fill="#EBF5FF"/>
<path d="M0.911972 44.0814L3.94146 33.0186C2.07275 29.7807 1.08981 26.1078 1.09119 22.345C1.09599 10.5735 10.6754 0.996582 22.4466 0.996582C28.1588 0.998985 33.5205 3.22234 37.5525 7.25774C41.5841 11.2932 43.8037 16.6572 43.8016 22.3622C43.7965 34.1333 34.2157 43.7117 22.4466 43.7117C22.4459 43.7117 22.4469 43.7117 22.4466 43.7117H22.4373C18.8633 43.7103 15.3518 42.8139 12.2327 41.1127L0.911972 44.0814ZM12.757 37.2479L13.4055 37.6321C16.1301 39.2492 19.254 40.1044 22.4397 40.1061H22.4466C32.2292 40.1061 40.1916 32.1452 40.1957 22.3608C40.1974 17.6192 38.3531 13.1605 35.0019 9.80657C31.6504 6.45265 27.1944 4.60455 22.4531 4.60249C12.6626 4.60249 4.70054 12.5624 4.69677 22.3464C4.69539 25.6993 5.63335 28.9643 7.4104 31.7898L7.83268 32.4614L6.03916 39.0092L12.757 37.2479Z" fill="#EBF5FF"/>
<path fill-rule="evenodd" clip-rule="evenodd" d="M17.2141 12.6347C16.8145 11.7462 16.3936 11.7284 16.0132 11.7129C15.7021 11.6995 15.3461 11.7002 14.9907 11.7002C14.6351 11.7002 14.0569 11.8341 13.568 12.368C13.0788 12.9018 11.7 14.1927 11.7 16.8181C11.7 19.4439 13.6123 21.9807 13.8791 22.3371C14.1458 22.6931 17.5705 28.2529 22.9939 30.3918C27.5014 32.1696 28.4184 31.8159 29.3969 31.727C30.3753 31.6381 32.5537 30.4361 32.9983 29.1902C33.4433 27.9443 33.4433 26.8765 33.3097 26.653C33.1762 26.4309 32.8205 26.2973 32.287 26.0306C31.7534 25.7638 29.1301 24.4726 28.6409 24.2947C28.1516 24.1165 27.796 24.028 27.4403 24.5622C27.0843 25.0957 26.0625 26.2973 25.7511 26.653C25.4397 27.0097 25.1283 27.0544 24.5948 26.7873C24.0613 26.5198 22.3426 25.9568 20.304 24.1388C18.7178 22.7247 17.6467 20.9779 17.3353 20.4436C17.0242 19.9101 17.3301 19.6464 17.5698 19.355C18.0013 18.83 18.7254 17.8862 18.9032 17.5305C19.0811 17.1742 18.9922 16.8628 18.8589 16.5957C18.7254 16.3289 17.6882 13.6901 17.2141 12.6347V12.6347Z" fill="#EBF5FF"/>
</g>
<defs>
<clipPath id="clip0_85_79">
<rect width="45" height="45" fill="white"/>
</clipPath>
</defs>
</svg>
